<?xml version="1.0" encoding="utf-8"?>
<!-- Generator: Adobe Illustrator 27.0.0, SVG Export Plug-In . SVG Version: 6.00 Build 0)  -->
<svg version="1.1" id="Grid" xmlns="http://www.w3.org/2000/svg" xmlns:xlink="http://www.w3.org/1999/xlink" x="0px" y="0px"
	 viewBox="0 0 512 512" style="enable-background:new 0 0 512 512;" xml:space="preserve">
<style type="text/css">
	.st0{fill:#359FD9;}
	.st1{fill:#04A9D3;}
	.st2{fill:#107396;}
	.st3{fill:#E9D2BD;}
	.st4{fill:#C0A171;}
	.st5{fill:#F9E2C9;}
	.st6{fill:#B5966F;}
</style>
<g>
	<g>
		<path class="st0" d="M71.9,291.9L227,381.5c0.3,43.5,0.6,87,0.9,130.5c-51.5,0-103,0-154.5,0C72.9,438.6,72.4,365.3,71.9,291.9z"
			/>
		<path class="st1" d="M71.9,291.9c51.7,29.9,103.5,59.7,155.2,89.6c71-41,142.1-82,213.1-123c-49.9-30.9-99.8-61.9-149.7-92.8
			C217.6,207.8,144.7,249.9,71.9,291.9L71.9,291.9z"/>
		<path class="st2" d="M440.1,258.5c-0.7,84.5-1.4,169-2.1,253.5c-70,0-140.1,0-210.1,0c-0.3-43.5-0.6-87-0.9-130.5L440.1,258.5z"/>
	</g>
	<g>
		<polygon class="st3" points="245.9,336.6 91.9,246.4 91.9,89 245.9,177.9 		"/>
		<polygon class="st4" points="91.9,89 248.1,0 402.3,89 245.9,177.9 		"/>
		<polygon class="st5" points="402.3,89 402.3,246.4 245.9,336.6 245.9,177.9 		"/>
	</g>
	<path class="st6" d="M163.8,164.5c18.6,10.6,37.1,21.2,55.7,31.9c8.8-6.1,17.7-12.3,26.5-18.4C194.6,148.3,143.2,118.6,91.8,89
		v139.3l23.7,11.3l43.3-73.8L163.8,164.5L163.8,164.5z"/>
	<g>
		<g>
			<path class="st4" d="M158.9,165.7c-1,1.6-1.9,3.3-2.9,4.9c-0.6,37.5-1.2,75.1-1.8,112.6c32.5,18.9,65.1,37.8,97.7,56.7v-44
				L174,250.3c-5.2-10.1-10.4-20.2-15.6-30.4C158.5,201.9,158.7,183.8,158.9,165.7L158.9,165.7z"/>
			<g>
				<path class="st6" d="M306.8,246.6c20-11.8,39.9-23.6,59.9-35.4c-2.4-1.4-4.8-2.8-7.2-4.2c-20.2,11.7-40.4,23.3-60.5,35
					C301.6,243.5,304.2,245,306.8,246.6L306.8,246.6z"/>
				<path class="st6" d="M298.9,242c-4,10.3-8.1,20.6-12.1,30.8c1.9,1.3,3.7,2.6,5.6,3.9c4.8-10,9.6-20.1,14.5-30.1L298.9,242
					L298.9,242z"/>
				<path class="st6" d="M251.9,289.8c11.7-5.6,23.3-11.3,34.9-16.9c1.9,1.3,3.7,2.6,5.6,3.9c-13.5,6.5-27,12.9-40.5,19.4V289.8z"/>
				<path class="st6" d="M251.9,289.8c-24.3-14.3-48.7-28.5-73-42.8c-1.6,1.1-3.2,2.2-4.9,3.4c26,15.3,51.9,30.5,77.9,45.8
					L251.9,289.8L251.9,289.8z"/>
				<path class="st6" d="M163.8,217.9c5,9.7,10.1,19.4,15.1,29c-1.6,1.1-3.2,2.2-4.9,3.4c-5-9.8-10-19.6-15.1-29.4
					C160.5,219.9,162.1,218.9,163.8,217.9L163.8,217.9z"/>
				<path class="st6" d="M163.8,217.9v-53.4c-1.6-0.9-3.2-1.9-4.9-2.8c-0.2,19.9-0.4,39.7-0.5,59.6C160.2,220.1,162,219,163.8,217.9
					L163.8,217.9z"/>
				<path class="st6" d="M389.5,226.4c5-2.9,10-5.8,15-8.6c1.1,0.7,2.2,1.3,3.3,2c-5.1,2.9-10.1,5.8-15.2,8.6
					C391.5,227.7,390.5,227,389.5,226.4z"/>
			</g>
		</g>
		<path class="st4" d="M407.7,219.8v30.6L251.9,340v-44l40.5-19.3l14.5-30.1c20-11.8,39.9-23.6,59.9-35.4
			c8.6,5.7,17.2,11.4,25.8,17.2C397.6,225.5,402.6,222.6,407.7,219.8L407.7,219.8z"/>
	</g>
</g>
</svg>
