<?xml version="1.0" encoding="UTF-8"?>
<svg id="Layer_2" data-name="Layer 2" xmlns="http://www.w3.org/2000/svg" viewBox="0 0 383.64 411.25">
  <defs>
    <style>
      .cls-1 {
        fill: #f5989f;
      }

      .cls-2 {
        fill: #f8abad;
      }

      .cls-3 {
        fill: #e9d2bd;
      }

      .cls-4 {
        fill: #e5e5e5;
      }

      .cls-5 {
        fill: #e5e4e3;
      }

      .cls-6 {
        fill: #efeded;
      }

      .cls-7 {
        fill: #fdf7fa;
      }

      .cls-8 {
        fill: #b5966f;
      }

      .cls-9 {
        fill: #c1bfbf;
      }

      .cls-10 {
        fill: #bc4858;
      }

      .cls-11 {
        fill: #bcbcbc;
      }

      .cls-12 {
        fill: #b0aeae;
      }

      .cls-13 {
        fill: #ababab;
      }

      .cls-14 {
        fill: #c0a171;
      }

      .cls-15 {
        fill: #cccccb;
      }

      .cls-16 {
        fill: #d2d2d1;
      }

      .cls-17 {
        fill: #d6d6d6;
      }

      .cls-18 {
        fill: #d3eef6;
      }

      .cls-19 {
        fill: #d3d3d3;
      }

      .cls-20 {
        fill: #db717d;
      }

      .cls-21 {
        fill: #dd8d93;
      }

      .cls-22 {
        fill: #107396;
      }

      .cls-23, .cls-24 {
        fill: #231f20;
      }

      .cls-25 {
        fill: #0b0b0b;
      }

      .cls-26 {
        fill: #41489e;
      }

      .cls-27 {
        fill: #04a9d3;
      }

      .cls-28 {
        fill: #359fd9;
      }

      .cls-29 {
        fill: #898989;
      }

      .cls-30 {
        fill: #262626;
      }

      .cls-31 {
        fill: #3a3a3a;
      }

      .cls-32 {
        fill: none;
        stroke: #414042;
        stroke-miterlimit: 10;
      }

      .cls-24 {
        opacity: .45;
      }
    </style>
  </defs>
  <g id="Grid">
    <polygon class="cls-6" points="0 300.53 191.82 411.25 383.64 300.53 191.82 189.81 0 300.53"/>
    <polygon class="cls-25" points="185.75 240.83 200.79 232.15 200.79 205.63 185.88 214.12 185.75 240.83"/>
    <path class="cls-16" d="M0,300.53V110.72C63.94,73.81,127.88,36.91,191.82,0V189.81L0,300.53Z"/>
    <path class="cls-25" d="M199.46,248.66c-4.57-2.61-9.15-5.22-13.72-7.84,4.91-2.86,9.81-5.72,14.72-8.59,4.63,2.61,9.25,5.22,13.88,7.84-4.96,2.86-9.92,5.72-14.88,8.59Z"/>
    <g>
      <path class="cls-2" d="M170.58,288.27v-22.93c2.51-1.45,5.03-2.9,7.54-4.35l7.54,4.36c0,7.64,0,15.28,0,22.92-2.51,1.45-5.03,2.9-7.54,4.35-2.51-1.45-5.03-2.9-7.54-4.35Z"/>
      <path class="cls-21" d="M178.12,292.62l-7.54-4.35v-12.37c2.54,1.48,5.07,2.97,7.61,4.45-.02,4.09-.05,8.18-.07,12.27Z"/>
    </g>
    <path class="cls-11" d="M383.64,300.53c-.58-63.33-1.15-126.65-1.73-189.98C318.54,73.7,255.18,36.85,191.82,0V189.81l191.82,110.72Z"/>
    <polygon class="cls-29" points="383.64 300.53 369.93 292.62 369.93 102.81 383.64 110.72 383.64 300.53"/>
    <polygon class="cls-5" points="369.93 292.62 356.23 284.71 356.23 94.9 369.93 102.81 369.93 292.62"/>
    <polygon class="cls-17" points="356.23 284.71 342.53 276.81 342.53 87 356.23 94.9 356.23 284.71"/>
    <polygon class="cls-5" points="342.53 276.81 328.83 268.9 328.83 79.09 342.53 87 342.53 276.81"/>
    <polygon class="cls-26" points="328.83 268.9 315.13 260.99 315.13 71.18 328.83 79.09 328.83 268.9"/>
    <polygon class="cls-5" points="315.09 260.99 301.38 253.08 301.39 63.27 315.09 71.18 315.09 260.99"/>
    <polygon class="cls-29" points="301.43 253.08 287.73 245.17 287.73 55.36 301.43 63.27 301.43 253.08"/>
    <polygon class="cls-7" points="287.73 245.17 274.03 237.26 274.03 47.45 287.73 55.36 287.73 245.17"/>
    <polygon class="cls-5" points="274.03 237.26 260.32 229.35 260.32 39.54 274.03 47.45 274.03 237.26"/>
    <polygon class="cls-17" points="260.32 229.35 246.62 221.44 246.62 31.63 260.32 39.54 260.32 229.35"/>
    <polygon class="cls-7" points="246.62 221.44 232.92 213.54 232.92 23.73 246.62 31.63 246.62 221.44"/>
    <polygon class="cls-29" points="232.92 213.54 219.22 205.63 219.22 15.82 232.92 23.73 232.92 213.54"/>
    <polygon class="cls-5" points="219.18 205.63 205.48 197.72 205.48 7.91 219.18 15.82 219.18 205.63"/>
    <polygon class="cls-26" points="205.52 197.72 191.82 189.81 191.82 0 205.52 7.91 205.52 197.72"/>
    <g>
      <path class="cls-2" d="M293.89,264.54v-22.93c2.51-1.45,5.03-2.9,7.54-4.35l7.54,4.36c0,7.64,0,15.28,0,22.92-2.51,1.45-5.03,2.9-7.54,4.35-2.51-1.45-5.03-2.9-7.54-4.35Z"/>
      <path class="cls-21" d="M301.43,268.9l-7.54-4.35v-3.61c2.51-1.46,5.03-2.93,7.54-4.39v12.36Z"/>
    </g>
    <g>
      <path class="cls-2" d="M211.68,312v-22.93c2.51-1.45,5.03-2.9,7.54-4.35l7.54,4.36c0,7.64,0,15.28,0,22.92-2.51,1.45-5.03,2.9-7.54,4.35-2.51-1.45-5.03-2.9-7.54-4.35Z"/>
      <path class="cls-21" d="M219.22,316.35l-7.54-4.35v-12.07c2.53,1.48,5.07,2.96,7.6,4.44-.02,3.99-.04,7.99-.06,11.98Z"/>
    </g>
    <g>
      <polygon class="cls-1" points="164.42 268.9 219.22 300.53 315.13 245.17 260.32 213.54 164.42 268.9"/>
      <path class="cls-20" d="M164.42,268.9v3.4c18.29,10.69,36.58,21.38,54.86,32.07-.02-1.28-.04-2.56-.06-3.84l-54.81-31.64Z"/>
      <polygon class="cls-10" points="315.13 245.17 315.13 248.56 219.28 304.37 219.22 300.53 315.13 245.17"/>
    </g>
    <g>
      <path class="cls-6" d="M221.89,250.4l27.4-15.82c-2.28-1.32-4.56-2.64-6.84-3.96-9.14,5.27-18.27,10.55-27.41,15.82,2.28,1.32,4.57,2.64,6.85,3.95Z"/>
      <path class="cls-19" d="M215.04,246.44c.01,.39,.02,.79,.03,1.18,2.27,1.31,4.54,2.62,6.8,3.93,0-.38,0-.77,.01-1.15l-6.85-3.95Z"/>
      <path class="cls-13" d="M249.3,234.58c0,.38,0,.77,0,1.15-9.14,5.27-18.28,10.55-27.42,15.82,0-.38,0-.77,.01-1.15l27.4-15.82Z"/>
    </g>
    <g>
      <g>
        <path class="cls-19" d="M232.89,259.81c.01,.39,.02,.79,.03,1.18,4.55,2.62,9.1,5.25,13.65,7.87,0-.38,0-.76,.01-1.14-4.57-2.64-9.13-5.28-13.7-7.91Z"/>
        <path class="cls-6" d="M257.25,246.3c-8.12,4.5-16.24,9-24.36,13.51,4.57,2.64,9.13,5.28,13.7,7.91,7.98-4.61,15.96-9.21,23.95-13.82-4.43-2.53-8.86-5.07-13.29-7.6Z"/>
        <path class="cls-13" d="M270.53,253.9c-.01,.4-.03,.81-.04,1.21-7.97,4.58-15.94,9.17-23.92,13.75v-1.14c8-4.61,15.98-9.21,23.96-13.82Z"/>
      </g>
      <g>
        <polygon class="cls-13" points="234.18 253.9 234.18 232.2 263.32 215.37 263.32 237.08 234.18 253.9"/>
        <polygon class="cls-19" points="232.93 253.2 234.18 253.9 234.18 232.2 232.93 231.5 232.93 253.2"/>
        <polygon class="cls-6" points="232.93 231.5 261.49 215.37 263.32 215.37 234.18 232.2 232.93 231.5"/>
      </g>
      <g>
        <path class="cls-13" d="M254.64,247.93c0-2.94,0-5.88,0-8.83-.98-.56-1.95-1.13-2.93-1.69-.98,.56-1.95,1.13-2.93,1.69v8.91s0,0,0,0v8.83c.98,.56,1.95,1.13,2.93,1.69,.98-.56,1.95-1.13,2.93-1.69,0-2.97,0-5.94,0-8.91,0,0,0,0,0,0Z"/>
        <path class="cls-19" d="M251.71,258.53c-.98-.56-1.95-1.13-2.93-1.69,0-5.91,0-11.82,0-17.73,.97,.56,1.94,1.12,2.92,1.68,0,5.92,0,11.83,.01,17.75Z"/>
        <polygon class="cls-6" points="248.78 239.1 251.7 240.78 254.64 239.11 251.71 237.41 248.78 239.1"/>
      </g>
    </g>
    <path class="cls-30" d="M185.75,240.83v1.21l12.71,7.21c.34-.2,.68-.39,1.02-.59-4.57-2.61-9.15-5.22-13.72-7.84Z"/>
    <polygon class="cls-1" points="137.02 221.44 191.82 189.81 205.52 197.72 150.64 229.4 137.02 221.44"/>
    <g>
      <path class="cls-31" d="M199.47,243.68s0,0,0,0c0-.66,0-1.32,0-1.99,0,0,0,0,0,0,0-.66,0-1.31,0-1.97-.22-.13-.44-.25-.65-.38-.22,.13-.44,.25-.65,.38v1.99s0,0,0,0v1.92s0,0,0,0v1.99s0,0,0,0v1.97c.22,.13,.44,.25,.65,.38,.22-.13,.44-.25,.65-.38,0-.66,0-1.32,0-1.99,0,0,0,0,0,0,0-.64,0-1.28,0-1.92Z"/>
      <path class="cls-30" d="M198.81,244.06c0-1.32,0-2.64,0-3.96l-.65-.37c0,1.3,0,2.61,0,3.91,0,0,0,0,0,0,0,1.32,0,2.64,0,3.96,.22,.13,.44,.25,.65,.38,0-1.3,0-2.61,0-3.91h0Z"/>
    </g>
    <path class="cls-20" d="M205.52,134.46c0,21.09,0,42.17,0,63.26l-13.7-7.91c0-21.09,0-42.18,0-63.26,4.57,2.64,9.13,5.28,13.7,7.91Z"/>
    <g>
      <path class="cls-31" d="M187.68,236.92s0,0,0,0c0-.66,0-1.32,0-1.99,0,0,0,0,0,0,0-.66,0-1.31,0-1.97-.22-.13-.44-.25-.65-.38-.22,.13-.44,.25-.65,.38v1.99s0,0,0,0v1.92s0,0,0,0v1.99s0,0,0,0v1.97c.22,.13,.44,.25,.65,.38,.22-.13,.44-.25,.65-.38,0-.66,0-1.32,0-1.99,0,0,0,0,0,0,0-.64,0-1.28,0-1.92Z"/>
      <path class="cls-30" d="M187.03,237.29c0-1.32,0-2.64,0-3.96l-.65-.37c0,1.3,0,2.61,0,3.91,0,0,0,0,0,0,0,1.32,0,2.64,0,3.96,.22,.13,.44,.25,.65,.38,0-1.3,0-2.61,0-3.91h0Z"/>
    </g>
    <g>
      <path class="cls-30" d="M185.75,231.64l13.72,7.84c0,.4,0,.79,0,1.19-4.57-2.6-9.15-5.21-13.72-7.81v-1.21Z"/>
      <path class="cls-25" d="M200.55,238.85c-.36,.21-.72,.42-1.08,.62l-13.72-7.84c.38-.22,.76-.45,1.14-.67,4.55,2.63,9.11,5.26,13.66,7.89Z"/>
      <polygon class="cls-31" points="199.47 240.66 200.55 240.06 200.55 238.85 199.47 239.48 199.47 240.66"/>
    </g>
    <path class="cls-30" d="M185.75,242.04l-1.06-.67,.19-27.83c.33,.2,.67,.39,1,.59-.04,9.3-.09,18.61-.13,27.91Z"/>
    <path class="cls-25" d="M184.88,213.54l3.82-2.06c0,.38,0,.77,0,1.15-.94,.5-1.88,1-2.82,1.5l-1-.59Z"/>
    <g>
      <path class="cls-6" d="M213.9,255.78c1.77-1.01,3.54-2.02,5.32-3.03-2.28-1.32-4.56-2.64-6.84-3.96-1.79,1-3.58,1.99-5.38,2.99,2.3,1.33,4.6,2.67,6.91,4Z"/>
      <path class="cls-19" d="M207,251.77c0,.11,0,.22,0,.33,2.3,1.35,4.6,2.69,6.9,4.04v-.37c-2.3-1.33-4.6-2.67-6.91-4Z"/>
      <path class="cls-13" d="M219.22,252.74c0,.11,0,.22,0,.33-1.77,1.02-3.54,2.05-5.32,3.07v-.37c1.77-1.01,3.54-2.02,5.32-3.03Z"/>
    </g>
    <polygon class="cls-26" points="0 300.53 13.7 292.62 13.7 102.81 0 110.72 0 300.53"/>
    <polygon class="cls-5" points="13.7 292.62 27.4 284.71 27.4 94.9 13.7 102.81 13.7 292.62"/>
    <polygon class="cls-17" points="27.4 284.71 41.11 276.81 41.11 87 27.4 94.9 27.4 284.71"/>
    <polygon class="cls-5" points="41.11 276.81 54.81 268.9 54.81 79.09 41.11 87 41.11 276.81"/>
    <polygon class="cls-7" points="54.81 268.9 68.51 260.99 68.51 71.18 54.81 79.09 54.81 268.9"/>
    <polygon class="cls-5" points="68.55 260.99 82.25 253.08 82.25 63.27 68.55 71.18 68.55 260.99"/>
    <polygon class="cls-29" points="82.21 253.08 95.91 245.17 95.91 55.36 82.21 63.27 82.21 253.08"/>
    <polygon class="cls-26" points="95.91 245.17 109.61 237.26 109.61 47.45 95.91 55.36 95.91 245.17"/>
    <polygon class="cls-5" points="109.61 237.26 123.31 229.35 123.31 39.54 109.61 47.45 109.61 237.26"/>
    <polygon class="cls-17" points="123.31 229.35 137.02 221.44 137.01 31.63 123.31 39.54 123.31 229.35"/>
    <polygon class="cls-5" points="137.02 221.44 150.72 213.54 150.72 23.73 137.02 31.63 137.02 221.44"/>
    <polygon class="cls-7" points="150.71 213.54 164.42 205.63 164.42 15.82 150.71 23.73 150.71 213.54"/>
    <polygon class="cls-5" points="164.46 205.63 178.16 197.72 178.16 7.91 164.46 15.82 164.46 205.63"/>
    <polygon class="cls-29" points="178.12 197.72 191.82 189.81 191.82 0 178.12 7.91 178.12 197.72"/>
    <polygon class="cls-10" points="150.72 166.08 191.84 142.37 191.82 189.81 150.72 213.54 150.72 166.08"/>
    <polygon class="cls-18" points="315.09 118.66 315.09 197.74 260.32 166.08 260.32 87 315.09 118.66"/>
    <polygon class="cls-6" points="260.32 166.08 258.01 167.43 312.83 199.1 315.09 197.74 260.32 166.08"/>
    <path class="cls-19" d="M258.01,167.43c.01,.73,.02,1.46,.03,2.2,18.27,10.55,36.54,21.09,54.81,31.64,0-.72,0-1.44,.01-2.16-18.28-10.56-36.57-21.11-54.85-31.67Z"/>
    <polygon class="cls-13" points="315.09 197.74 312.86 199.1 312.85 201.26 315.09 199.95 315.09 197.74"/>
    <path class="cls-6" d="M262.64,164.7l-2.32,1.35,54.82,31.67c0-.84-.01-1.68-.02-2.53-17.5-10.16-34.99-20.33-52.49-30.49Z"/>
    <polygon class="cls-29" points="262.64 164.7 260.32 166.05 260.32 87 262.64 88.34 262.64 164.7"/>
    <g>
      <path class="cls-9" d="M213.97,253.69c.54-.33,1.07-.66,1.61-1-.24-.4-.48-.81-.71-1.21-.54,.35-1.09,.7-1.63,1.05,.24,.39,.49,.77,.73,1.16Z"/>
      <path class="cls-12" d="M213.24,252.53l-2.6-1.51,1.68-1.01c.85,.49,1.7,.98,2.55,1.47-.54,.35-1.09,.7-1.63,1.05Z"/>
      <polygon class="cls-15" points="210.64 251.01 210.64 251.75 213.24 253.29 213.24 252.53 210.64 251.01"/>
      <polygon class="cls-4" points="213.24 253.29 213.97 253.69 213.24 252.53 213.24 253.29"/>
      <path class="cls-4" d="M214.36,252.28l-.17,.11,.25,.4c.06-.04,.12-.07,.17-.11-.09-.13-.17-.26-.26-.39Z"/>
    </g>
    <path class="cls-1" d="M136.99,158.19l54.83-31.65c4.57,2.64,9.14,5.28,13.71,7.92-18.27,10.54-36.54,21.08-54.81,31.63l-13.73-7.9Z"/>
    <polygon class="cls-1" points="137.06 189.79 191.86 158.15 205.56 166.06 150.68 197.74 137.06 189.79"/>
    <path class="cls-20" d="M136.99,158.19c0,21.09,.02,42.17,.02,63.26l13.62,7.95c.03-21.1,.05-42.21,.08-63.31-4.58-2.63-9.15-5.27-13.73-7.9Z"/>
    <g>
      <path class="cls-31" d="M213.05,235.51s0,0,0,0c0-.66,0-1.32,0-1.99,0,0,0,0,0,0,0-.66,0-1.31,0-1.97-.22-.13-.44-.25-.65-.38-.22,.13-.44,.25-.65,.38v1.99s0,0,0,0v1.92s0,0,0,0v1.99s0,0,0,0v1.97c.22,.13,.44,.25,.65,.38,.22-.13,.44-.25,.65-.38,0-.66,0-1.32,0-1.99,0,0,0,0,0,0,0-.64,0-1.28,0-1.92Z"/>
      <path class="cls-30" d="M212.39,235.89c0-1.32,0-2.64,0-3.96l-.65-.37c0,1.3,0,2.61,0,3.91,0,0,0,0,0,0,0,1.32,0,2.64,0,3.96,.22,.13,.44,.25,.65,.38,0-1.3,0-2.61,0-3.91h0Z"/>
    </g>
    <g>
      <path class="cls-31" d="M201.26,228.75s0,0,0,0c0-.66,0-1.32,0-1.99,0,0,0,0,0,0,0-.66,0-1.31,0-1.97-.22-.13-.44-.25-.65-.38-.22,.13-.44,.25-.65,.38v1.99s0,0,0,0v1.92s0,0,0,0v1.99s0,0,0,0v1.97c.22,.13,.44,.25,.65,.38,.22-.13,.44-.25,.65-.38,0-.66,0-1.32,0-1.99,0,0,0,0,0,0,0-.64,0-1.28,0-1.92Z"/>
      <path class="cls-30" d="M200.6,229.12c0-1.32,0-2.64,0-3.96l-.65-.37c0,1.3,0,2.61,0,3.91,0,0,0,0,0,0,0,1.32,0,2.64,0,3.96,.22,.13,.44,.25,.65,.38,0-1.3,0-2.61,0-3.91h0Z"/>
    </g>
    <g>
      <path class="cls-30" d="M199.33,223.47l13.72,7.84c0,.4,0,.79,0,1.19-4.57-2.6-9.15-5.21-13.72-7.81v-1.21Z"/>
      <path class="cls-25" d="M214.13,230.68c-.36,.21-.72,.42-1.08,.62l-13.72-7.84c.38-.22,.76-.45,1.14-.67,4.55,2.63,9.11,5.26,13.66,7.89Z"/>
      <polygon class="cls-31" points="213.05 232.5 214.13 231.89 214.13 230.68 213.05 231.31 213.05 232.5"/>
    </g>
    <path class="cls-30" d="M184.88,213.54l1,.59,14.91-8.5c-.7,.05-1.4,.1-2.1,.16-4.6,2.58-9.21,5.17-13.81,7.75Z"/>
    <path class="cls-23" d="M195.26,247.44v3.65c.69-.4,1.37-.79,2.06-1.19,0-.43,0-.87-.01-1.3-.68-.39-1.36-.78-2.05-1.17Z"/>
    <g>
      <g>
        <polygon class="cls-3" points="127.33 321.67 113.73 313.71 113.73 299.81 127.33 307.66 127.33 321.67"/>
        <polygon class="cls-14" points="113.73 299.81 127.53 291.95 141.14 299.81 127.33 307.66 113.73 299.81"/>
        <polygon class="cls-14" points="141.14 299.81 141.14 313.71 127.33 321.67 127.33 307.66 141.14 299.81"/>
        <path class="cls-8" d="M125.64,311.91c-.45-1.11-.91-2.23-1.36-3.34-.99-.62-1.97-1.24-2.96-1.86-.98-.72-1.95-1.44-2.93-2.17l-4.66,.06v-4.79c4.56,2.62,9.12,5.23,13.68,7.85-.03,4.67-.05,9.34-.08,14.01-.39-.23-.79-.46-1.18-.69,.03-.67,.06-1.35,.09-2.02-.11-1.11-.22-2.21-.33-3.32-.09-1.25-.18-2.49-.27-3.74Z"/>
      </g>
      <g>
        <path class="cls-28" d="M177.47,323.93c-4.53,2.5-9.05,5-13.58,7.49-.08,3.7-.16,7.41-.24,11.11,4.43-2.56,8.85-5.11,13.28-7.67,.18-3.65,.36-7.29,.54-10.94Z"/>
        <path class="cls-27" d="M177.47,323.93c-4.53,2.5-9.05,5-13.58,7.49-12.17-6.43-24.33-12.85-36.5-19.28,4.58-2.75,9.16-5.5,13.75-8.25,12.11,6.68,24.22,13.36,36.33,20.03Z"/>
        <path class="cls-22" d="M127.39,312.14c-.02,3.18-.04,6.35-.05,9.53,12.1,6.95,24.21,13.91,36.31,20.86l.24-11.11c-12.17-6.43-24.33-12.85-36.5-19.28Z"/>
      </g>
      <g>
        <path class="cls-32" d="M118.4,288.21c-.16-1.18-.33-2.36-.49-3.53,.29-1.39,.58-2.79,.87-4.18-.13-1.63-.25-3.26-.38-4.89"/>
        <path class="cls-32" d="M124.21,286.35c-.16-1.18-.33-2.36-.49-3.53l.87-4.18c-.13-1.63-.25-3.26-.38-4.89"/>
        <path class="cls-32" d="M130.02,288.63c-.16-1.18-.33-2.36-.49-3.53,.29-1.39,.58-2.79,.87-4.18-.13-1.63-.25-3.26-.38-4.89"/>
        <path class="cls-32" d="M135.83,286.77c-.16-1.18-.33-2.36-.49-3.53l.87-4.18c-.13-1.63-.25-3.26-.38-4.89"/>
      </g>
    </g>
    <path class="cls-24" d="M191.82,0L0,110.72v189.81c63.94,36.91,127.88,73.81,191.82,110.72,63.94-36.91,127.88-73.81,191.82-110.72,0-63.27,0-126.54,0-189.81C319.7,73.81,255.76,36.91,191.82,0Zm-48.34,367.06c-29.17,0-52.82-23.65-52.82-52.82s23.65-52.82,52.82-52.82,52.82,23.65,52.82,52.82-23.65,52.82-52.82,52.82Z"/>
  </g>
</svg>