<svg xmlns="http://www.w3.org/2000/svg" width="73.821" height="72" viewBox="0 0 73.821 72">
  <path id="github" d="M36.911,0A36.912,36.912,0,0,0,25.238,71.929c1.846.323,2.538-.784,2.538-1.753,0-.877-.046-3.783-.046-6.875-9.274,1.707-11.673-2.261-12.411-4.337C14.9,57.9,13.1,54.628,11.535,53.751c-1.292-.692-3.137-2.4-.046-2.445,2.907-.046,4.983,2.676,5.675,3.783,3.322,5.583,8.628,4.014,10.75,3.045A7.764,7.764,0,0,1,30.267,53.2c-8.213-.923-16.794-4.106-16.794-18.225a14.365,14.365,0,0,1,3.783-9.92,13.263,13.263,0,0,1,.369-9.781s3.091-.969,10.15,3.783a34.8,34.8,0,0,1,18.455,0c7.059-4.8,10.15-3.783,10.15-3.783a13.263,13.263,0,0,1,.369,9.781,14.281,14.281,0,0,1,3.783,9.92c0,14.164-8.628,17.3-16.84,18.225,1.338,1.153,2.491,3.368,2.491,6.828,0,4.937-.046,8.9-.046,10.15,0,.969.692,2.122,2.538,1.753A36.93,36.93,0,0,0,36.911,0Z" fill="#2e20ca" fill-rule="evenodd"/>
</svg>
