<svg id="linkedin" xmlns="http://www.w3.org/2000/svg" width="72" height="72" viewBox="0 0 72 72">
  <path id="Path_11" data-name="Path 11" d="M36,72h0A36,36,0,0,0,72,36h0A36,36,0,0,0,36,0h0A36,36,0,0,0,0,36H0A36,36,0,0,0,36,72Z" fill="#2e20ca" fill-rule="evenodd"/>
  <path id="Path_12" data-name="Path 12" d="M59,57H49.959V41.6c0-4.222-1.6-6.581-4.946-6.581-3.635,0-5.534,2.455-5.534,6.581V57H30.767V27.667h8.713v3.951a10.234,10.234,0,0,1,8.844-4.847C54.546,26.77,59,30.57,59,38.428ZM20.373,23.826a5.413,5.413,0,1,1,5.371-5.413A5.393,5.393,0,0,1,20.373,23.826ZM15.874,57h9.085V27.667H15.874Z" fill="#fff" fill-rule="evenodd"/>
</svg>
