<svg xmlns="http://www.w3.org/2000/svg" viewBox="0 0 383.64 411.25"><defs><style>.cls-1{fill:#efeded;}.cls-2{fill:#0b0b0b;}.cls-3{fill:#d2d2d1;}.cls-4{fill:#f8abad;}.cls-5{fill:#dd8d93;}.cls-6{fill:#262626;}.cls-7{fill:#3a3a3a;}.cls-8{fill:#bcbcbc;}.cls-9{fill:#898989;}.cls-10{fill:#e5e4e3;}.cls-11{fill:#d6d6d6;}.cls-12{fill:#41489e;}.cls-13{fill:#fdf7fa;}.cls-14{fill:#359fd9;}.cls-15{fill:#04a9d3;}.cls-16{fill:#107396;}.cls-17{fill:#f5989f;}.cls-18{fill:#db717d;}.cls-19{fill:#bc4858;}.cls-20{fill:#d3d3d3;}.cls-21{fill:#ababab;}.cls-22{fill:#e9d2bd;}.cls-23{fill:#c0a171;}.cls-24{fill:#f9e2c9;}.cls-25{fill:#b5966f;}.cls-26{fill:#d3eef6;}.cls-27{fill:#c1bfbf;}.cls-28{fill:#b0aeae;}.cls-29{fill:#cccccb;}.cls-30{fill:#e5e5e5;}.cls-31{fill:#c6c6c5;}.cls-32{fill:#ddd;}.cls-33{fill:#a9a8a9;}.cls-34{fill:#fff;}.cls-35{fill:#eadfdf;}.cls-36{fill:#f9f2f2;}</style></defs><g id="Layer_2" data-name="Layer 2"><g id="Grid"><polygon class="cls-1" points="0 300.53 191.82 411.25 383.63 300.53 191.82 189.81 0 300.53"/><polygon class="cls-2" points="185.75 240.83 200.79 232.15 200.79 205.63 185.88 214.12 185.75 240.83"/><path class="cls-3" d="M0,300.53V110.72L191.82,0V189.81Z"/><path class="cls-2" d="M199.46,248.66l-13.71-7.83,14.16-8.22,13.46,8Z"/><path class="cls-4" d="M170.58,288.27V265.34l7.53-4.35,7.55,4.36v22.92l-7.54,4.35Z"/><path class="cls-5" d="M178.12,292.62l-7.54-4.35V275.9l7.61,4.45Q178.15,286.49,178.12,292.62Z"/><path class="cls-6" d="M206,221.56l13.72,7.84v1.19L206,222.77Z"/><path class="cls-2" d="M220.77,228.78l-1.08.62L206,221.56l1.14-.67Z"/><polygon class="cls-7" points="219.69 230.59 220.77 229.99 220.77 228.78 219.69 229.4 219.69 230.59"/><path class="cls-8" d="M383.64,300.53q-.87-95-1.73-190L191.82,0V189.81Z"/><polygon class="cls-9" points="383.64 300.53 369.93 292.62 369.94 102.81 383.64 110.72 383.64 300.53"/><polygon class="cls-10" points="369.93 292.62 356.23 284.71 356.23 94.91 369.93 102.81 369.93 292.62"/><polygon class="cls-11" points="356.23 284.71 342.53 276.81 342.53 87 356.23 94.91 356.23 284.71"/><polygon class="cls-10" points="342.53 276.81 328.83 268.9 328.83 79.09 342.53 87 342.53 276.81"/><polygon class="cls-12" points="328.83 268.9 315.13 260.99 315.13 71.18 328.83 79.09 328.83 268.9"/><polygon class="cls-10" points="315.09 260.99 301.38 253.08 301.39 63.27 315.09 71.18 315.09 260.99"/><polygon class="cls-9" points="301.43 253.08 287.73 245.17 287.73 55.36 301.43 63.27 301.43 253.08"/><polygon class="cls-13" points="287.73 245.17 274.02 237.26 274.03 47.45 287.73 55.36 287.73 245.17"/><polygon class="cls-10" points="274.02 237.26 260.32 229.35 260.32 39.54 274.02 47.45 274.02 237.26"/><polygon class="cls-11" points="260.32 229.35 246.62 221.44 246.62 31.64 260.32 39.54 260.32 229.35"/><polygon class="cls-13" points="246.62 221.44 232.92 213.53 232.92 23.73 246.62 31.64 246.62 221.44"/><polygon class="cls-9" points="232.92 213.54 219.22 205.63 219.22 15.82 232.92 23.73 232.92 213.54"/><polygon class="cls-10" points="219.18 205.63 205.48 197.72 205.48 7.91 219.18 15.82 219.18 205.63"/><polygon class="cls-12" points="205.52 197.72 191.82 189.81 191.82 0 205.52 7.91 205.52 197.72"/><path class="cls-14" d="M186.94,218.75l13.7,7.91.15,21.24L187.09,240Z"/><path class="cls-15" d="M186.94,218.75l13.7,7.91,18.81-10.86-13.21-8.19Z"/><path class="cls-16" d="M219.45,215.8q-.09,10.72-.19,21.44L200.79,247.9l-.15-21.24Z"/><path class="cls-4" d="M293.89,264.54V241.61l7.54-4.35,7.54,4.36v22.92l-7.54,4.36Z"/><path class="cls-5" d="M301.43,268.9l-7.54-4.36v-3.61l7.54-4.39Z"/><path class="cls-4" d="M211.68,312V289.07l7.54-4.35,7.54,4.36V312l-7.54,4.35Z"/><path class="cls-5" d="M219.22,316.35,211.68,312V299.93l7.6,4.44Z"/><polygon class="cls-17" points="164.41 268.9 219.22 300.53 315.13 245.17 260.32 213.54 164.41 268.9"/><path class="cls-18" d="M164.42,268.9v3.4l54.86,32.07-.06-3.84Z"/><polygon class="cls-19" points="315.13 245.17 315.13 248.56 219.28 304.37 219.22 300.53 315.13 245.17"/><path class="cls-1" d="M221.89,250.4l27.41-15.82-6.85-4L215,246.44Z"/><path class="cls-20" d="M215,246.44c0,.4,0,.79,0,1.18l6.8,3.93V250.4Z"/><path class="cls-21" d="M249.3,234.58v1.15l-27.42,15.82V250.4Z"/><path class="cls-20" d="M232.89,259.81c0,.39,0,.78,0,1.18l13.64,7.87c0-.38,0-.76,0-1.14Z"/><path class="cls-1" d="M257.25,246.3l-24.36,13.51,13.7,7.91,23.94-13.82Z"/><path class="cls-21" d="M270.53,253.9c0,.4,0,.81,0,1.21l-23.92,13.75,0-1.14Z"/><polygon class="cls-21" points="234.18 253.9 234.18 232.2 263.32 215.37 263.32 237.08 234.18 253.9"/><polygon class="cls-20" points="232.93 253.2 234.18 253.9 234.18 232.2 232.93 231.5 232.93 253.2"/><polygon class="cls-1" points="232.93 231.5 261.49 215.37 263.32 215.37 234.18 232.2 232.93 231.5"/><path class="cls-21" d="M254.64,247.93v-8.82l-2.93-1.7-2.93,1.69V248h0v8.83l2.93,1.69,2.93-1.69v-8.91Z"/><path class="cls-20" d="M251.71,258.53l-2.93-1.69V239.1l2.92,1.68Q251.7,249.66,251.71,258.53Z"/><polygon class="cls-1" points="248.78 239.1 251.7 240.78 254.64 239.11 251.71 237.41 248.78 239.1"/><path class="cls-6" d="M185.75,240.83V242l12.7,7.21,1-.59Z"/><polygon class="cls-17" points="137.01 221.44 191.82 189.81 205.52 197.72 150.63 229.4 137.01 221.44"/><path class="cls-7" d="M199.47,243.68h0v-2h0v-2l-.66-.38-.65.38v2h0v1.93h0v2h0v2l.65.38.66-.38v-2h0Z"/><path class="cls-6" d="M198.81,244.06v-4l-.65-.37v3.91h0v4l.65.38v-3.91Z"/><path class="cls-18" d="M205.52,134.46v63.26l-13.7-7.91q0-31.63,0-63.26Z"/><path class="cls-7" d="M187.68,236.92h0v-2h0v-2l-.65-.38-.66.38v2h0v1.92h0v2h0v2l.66.38.65-.38v-2h0Z"/><path class="cls-6" d="M187,237.29c0-1.32,0-2.64,0-4l-.65-.37v3.91h0v4l.66.38c0-1.31,0-2.61,0-3.92Z"/><path class="cls-6" d="M185.75,231.64l13.72,7.84v1.18l-13.72-7.81Z"/><path class="cls-2" d="M200.55,238.85l-1.08.63-13.72-7.84,1.14-.67Z"/><polygon class="cls-7" points="199.47 240.66 200.55 240.06 200.55 238.85 199.47 239.48 199.47 240.66"/><polygon class="cls-22" points="202.31 222.69 188.71 214.73 188.71 200.83 202.31 208.68 202.31 222.69"/><polygon class="cls-23" points="188.71 200.83 202.5 192.97 216.11 200.83 202.31 208.68 188.71 200.83"/><polygon class="cls-24" points="216.11 200.83 216.11 214.73 202.31 222.69 202.31 208.68 216.11 200.83"/><path class="cls-6" d="M185.75,242l-1.06-.68.19-27.82,1,.58Z"/><path class="cls-2" d="M184.88,213.54l3.83-2.07c0,.39,0,.77,0,1.15l-2.82,1.5Z"/><path class="cls-1" d="M213.9,255.78l5.32-3-6.85-4-5.37,3Z"/><path class="cls-20" d="M207,251.77v.34l6.89,4v-.37Z"/><path class="cls-21" d="M219.22,252.74v.34l-5.32,3.07v-.37Z"/><path class="cls-25" d="M195.05,207.49l4.92,2.82,2.34-1.63-13.6-7.85v12.3l2.09,1,3.82-6.51Z"/><path class="cls-23" d="M194.62,207.61l-.25.43c-.05,3.32-.11,6.63-.16,9.94l8.62,5v-3.88l-6.87-4-1.38-2.68Z"/><path class="cls-25" d="M207.68,214.74l5.29-3.12-.64-.37L207,214.34Z"/><path class="cls-25" d="M207,214.34c-.36.91-.72,1.81-1.07,2.72l.49.34c.42-.88.85-1.77,1.27-2.66Z"/><path class="cls-25" d="M202.83,218.55l3.09-1.49.49.34-3.58,1.71Z"/><path class="cls-25" d="M202.83,218.55l-6.44-3.77-.43.29,6.87,4Z"/><path class="cls-25" d="M195.05,212.21l1.34,2.57-.43.29-1.34-2.6Z"/><path class="cls-25" d="M195.05,212.21v-4.72l-.43-.24c0,1.75,0,3.5,0,5.26Z"/><path class="cls-25" d="M215,213l1.32-.76.29.17-1.34.77Z"/><path class="cls-23" d="M216.59,212.37v2.7L202.83,223v-3.88l3.58-1.71,1.27-2.66,5.29-3.12,2.28,1.52Z"/><polygon class="cls-12" points="0 300.53 13.7 292.62 13.7 102.81 0 110.72 0 300.53"/><polygon class="cls-10" points="13.7 292.62 27.4 284.71 27.4 94.91 13.7 102.81 13.7 292.62"/><polygon class="cls-11" points="27.4 284.71 41.11 276.81 41.1 87 27.4 94.91 27.4 284.71"/><polygon class="cls-10" points="41.11 276.81 54.81 268.9 54.81 79.09 41.11 87 41.11 276.81"/><polygon class="cls-13" points="54.8 268.9 68.51 260.99 68.51 71.18 54.8 79.09 54.8 268.9"/><polygon class="cls-10" points="68.55 260.99 82.25 253.08 82.25 63.27 68.55 71.18 68.55 260.99"/><polygon class="cls-9" points="82.21 253.08 95.91 245.17 95.91 55.36 82.21 63.27 82.21 253.08"/><polygon class="cls-12" points="95.91 245.17 109.61 237.26 109.61 47.45 95.91 55.36 95.91 245.17"/><polygon class="cls-10" points="109.61 237.26 123.31 229.35 123.31 39.54 109.61 47.45 109.61 237.26"/><polygon class="cls-11" points="123.31 229.35 137.01 221.44 137.01 31.64 123.31 39.54 123.31 229.35"/><polygon class="cls-10" points="137.01 221.44 150.72 213.53 150.72 23.73 137.01 31.64 137.01 221.44"/><polygon class="cls-13" points="150.71 213.54 164.42 205.63 164.41 15.82 150.71 23.73 150.71 213.54"/><polygon class="cls-10" points="164.46 205.63 178.16 197.72 178.16 7.91 164.46 15.82 164.46 205.63"/><polygon class="cls-9" points="178.12 197.72 191.82 189.81 191.82 0 178.12 7.91 178.12 197.72"/><polygon class="cls-19" points="150.72 166.08 191.84 142.37 191.82 189.81 150.72 213.53 150.72 166.08"/><polygon class="cls-26" points="315.09 118.66 315.09 197.74 260.32 166.08 260.32 87 315.09 118.66"/><polygon class="cls-1" points="260.32 166.08 258.01 167.43 312.83 199.1 315.09 197.74 260.32 166.08"/><path class="cls-20" d="M258,167.43l0,2.2,54.81,31.63V199.1Q285.42,183.28,258,167.43Z"/><polygon class="cls-21" points="315.09 197.74 312.86 199.1 312.85 201.26 315.09 199.95 315.09 197.74"/><path class="cls-1" d="M262.64,164.7l-2.32,1.35,54.83,31.67c0-.84,0-1.69,0-2.53Z"/><polygon class="cls-9" points="262.64 164.7 260.32 166.05 260.32 87 262.64 88.33 262.64 164.7"/><path class="cls-27" d="M214,253.69l1.61-1-.71-1.21-1.63,1.05Z"/><path class="cls-28" d="M213.24,252.53l-2.6-1.52,1.68-1,2.55,1.47Z"/><polygon class="cls-29" points="210.63 251.01 210.63 251.75 213.24 253.29 213.24 252.53 210.63 251.01"/><polygon class="cls-30" points="213.24 253.29 213.97 253.69 213.24 252.53 213.24 253.29"/><path class="cls-30" d="M214.36,252.28l-.16.11.25.39.17-.11Z"/><path class="cls-17" d="M137,158.19l54.83-31.65,13.7,7.92-54.8,31.62Z"/><polygon class="cls-17" points="137.06 189.79 191.86 158.15 205.56 166.06 150.68 197.74 137.06 189.79"/><path class="cls-18" d="M137,158.19l0,63.25,13.62,8,.08-63.32Z"/><path class="cls-4" d="M6.16,304.09V281.16l7.54-4.35,7.54,4.36v22.92l-7.54,4.35Z"/><path class="cls-5" d="M13.7,308.44l-7.54-4.35V281.16l7.54-4.35Z"/><path class="cls-4" d="M88.37,351.54V328.61l7.54-4.35,7.54,4.36v22.92l-7.54,4.35Z"/><path class="cls-5" d="M95.91,355.89l-7.54-4.35V328.61l7.54-4.35Z"/><path class="cls-4" d="M129.47,327.81V304.88l7.54-4.35,7.54,4.36v22.92L137,332.17Z"/><path class="cls-5" d="M137,332.17l-7.54-4.36V304.88l7.54-4.35Z"/><polygon class="cls-31" points="6.16 288.27 95.91 340.08 95.91 333.66 6.16 281.16 6.16 288.27"/><polygon class="cls-31" points="144.55 312 144.55 304.89 56.58 254.12 56.56 260.77 144.55 312"/><path class="cls-32" d="M6.16,281.16l48.75-27.9,89.64,51.63L95.91,333.66Z"/><path class="cls-33" d="M95.91,333.66v6.42L144.55,312v-7.11Z"/><polygon class="cls-34" points="95.91 333.66 95.91 330.5 144.55 301.42 144.55 304.89 95.91 333.66"/><polygon class="cls-35" points="95.91 333.66 95.91 330.5 20.55 286.79 20.55 289.58 95.91 333.66"/><polygon class="cls-36" points="20.55 286.79 68.55 259.37 144.55 301.42 95.91 330.5 20.55 286.79"/><polygon class="cls-17" points="29.39 281.7 17.28 274.72 44.69 258.9 56.93 265.97 29.39 281.7"/><polygon class="cls-18" points="17.28 274.72 17.28 278.58 26 283.64 29.39 281.7 17.28 274.72"/></g></g></svg>